{
  "accessors": [
    {
      "bufferView": 1,
      "componentType": 5126,
      "count": 195,
      "max": [
        -39.79999923706055,
        0.800000011920929,
        -26.600000381469727
      ],
      "min": [
        -48.599998474121094,
        -8.0,
        -60.20000076293945
      ],
      "type": "VEC3"
    },
    {
      "bufferView": 1,
      "byteOffset": 2340,
      "componentType": 5126,
      "count": 195,
      "max": [
        1.0,
        1.0,
        1.0
      ],
      "min": [
        -1.0,
        -1.0,
        -1.0
      ],
      "type": "VEC3"
    },
    {
      "bufferView": 0,
      "componentType": 5125,
      "count": 525,
      "type": "SCALAR"
    },
    {
      "bufferView": 1,
      "byteOffset": 4680,
      "componentType": 5126,
      "count": 9269,
      "max": [
        -27.200000762939453,
        -1.2000000476837158,
        19.799999237060547
      ],
      "min": [
        -32.0,
        -6.0,
        -1.0
      ],
      "type": "VEC3"
    },
    {
      "bufferView": 1,
      "byteOffset": 115908,
      "componentType": 5126,
      "count": 9269,
      "max": [
        0.9998583793640137,
        0.999480128288269,
        0.9407896399497986
      ],
      "min": [
        -0.9994803071022034,
        -1.0,
        -0.9406595230102539
      ],
      "type": "VEC3"
    },
    {
      "bufferView": 0,
      "byteOffset": 2100,
      "componentType": 5125,
      "count": 27771,
      "type": "SCALAR"
    },
    {
      "bufferView": 1,
      "byteOffset": 227136,
      "componentType": 5126,
      "count": 7090,
      "max": [
        -3.0,
        0.800000011920929,
        100.0
      ],
      "min": [
        -56.0,
        -12.0,
        -77.0
      ],
      "type": "VEC3"
    },
    {
      "bufferView": 1,
      "byteOffset": 312216,
      "componentType": 5126,
      "count": 7090,
      "max": [
        1.0,
        1.0,
        1.0
      ],
      "min": [
        -1.0,
        -1.0,
        -1.0
      ],
      "type": "VEC3"
    },
    {
      "bufferView": 0,
      "byteOffset": 113184,
      "componentType": 5125,
      "count": 38316,
      "type": "SCALAR"
    },
    {
      "bufferView": 1,
      "byteOffset": 397296,
      "componentType": 5126,
      "count": 990,
      "max": [
        -25.0,
        -0.0,
        27.0
      ],
      "min": [
        -34.0,
        -9.0,
        -5.0
      ],
      "type": "VEC3"
    },
    {
      "bufferView": 1,
      "byteOffset": 409176,
      "componentType": 5126,
      "count": 990,
      "max": [
        1.0,
        1.0,
        1.0
      ],
      "min": [
        -1.0,
        -1.0,
        -1.0
      ],
      "type": "VEC3"
    },
    {
      "bufferView": 0,
      "byteOffset": 266448,
      "componentType": 5125,
      "count": 2958,
      "type": "SCALAR"
    }
  ],
  "asset": {
    "extras": {
      "author": "Mr. Snark (https://sketchfab.com/Mr-Snark)",
      "license": "CC-BY-4.0 (http://creativecommons.org/licenses/by/4.0/)",
      "source": "https://sketchfab.com/3d-models/tf2-wrench-6f36879f456346b580d0b136d101f78a",
      "title": "TF2 Wrench"
    },
    "generator": "Sketchfab-15.70.0",
    "version": "2.0"
  },
  "bufferViews": [
    {
      "buffer": 0,
      "byteLength": 278280,
      "name": "floatBufferViews",
      "target": 34963
    },
    {
      "buffer": 0,
      "byteLength": 421056,
      "byteOffset": 278280,
      "byteStride": 12,
      "name": "floatBufferViews",
      "target": 34962
    }
  ],
  "buffers": [
    {
      "byteLength": 699336,
      "uri": "scene.bin"
    }
  ],
  "extensionsUsed": [
    "KHR_materials_specular"
  ],
  "materials": [
    {
      "doubleSided": true,
      "extensions": {
        "KHR_materials_specular": {
          "specularColorFactor": [
            1.0,
            1.0,
            1.0
          ],
          "specularFactor": 0.0
        }
      },
      "name": "color_10988977",
      "pbrMetallicRoughness": {
        "baseColorFactor": [
          0.18661645292633272,
          0.19332111793102608,
          0.19779117955407102,
          1.0
        ],
        "roughnessFactor": 0.4
      }
    },
    {
      "doubleSided": true,
      "extensions": {
        "KHR_materials_specular": {
          "specularColorFactor": [
            1.0,
            1.0,
            1.0
          ],
          "specularFactor": 0.0
        }
      },
      "name": "color_2829873",
      "pbrMetallicRoughness": {
        "baseColorFactor": [
          0.4373346661627921,
          0.4373346661627921,
          0.4373346661627921,
          1.0
        ],
        "roughnessFactor": 0.4
      }
    },
    {
      "doubleSided": true,
      "extensions": {
        "KHR_materials_specular": {
          "specularColorFactor": [
            1.0,
            1.0,
            1.0
          ],
          "specularFactor": 0.0
        }
      },
      "name": "color_6383466",
      "pbrMetallicRoughness": {
        "baseColorFactor": [
          0.05333349587351123,
          0.05333349587351123,
          0.05333349587351123,
          1.0
        ],
        "roughnessFactor": 0.09999999999999998
      }
    },
    {
      "doubleSided": true,
      "extensions": {
        "KHR_materials_specular": {
          "specularColorFactor": [
            1.0,
            1.0,
            1.0
          ],
          "specularFactor": 0.0
        }
      },
      "name": "color_7697781",
      "pbrMetallicRoughness": {
        "baseColorFactor": [
          0.07052784567304476,
          0.07052784567304476,
          0.07052784567304476,
          1.0
        ],
        "roughnessFactor": 0.4
      }
    }
  ],
  "meshes": [
    {
      "name": "Object_0",
      "primitives": [
        {
          "attributes": {
            "NORMAL": 1,
            "POSITION": 0
          },
          "indices": 2,
          "material": 0,
          "mode": 4
        }
      ]
    },
    {
      "name": "Object_1",
      "primitives": [
        {
          "attributes": {
            "NORMAL": 4,
            "POSITION": 3
          },
          "indices": 5,
          "material": 1,
          "mode": 4
        }
      ]
    },
    {
      "name": "Object_2",
      "primitives": [
        {
          "attributes": {
            "NORMAL": 7,
            "POSITION": 6
          },
          "indices": 8,
          "material": 2,
          "mode": 4
        }
      ]
    },
    {
      "name": "Object_3",
      "primitives": [
        {
          "attributes": {
            "NORMAL": 10,
            "POSITION": 9
          },
          "indices": 11,
          "material": 3,
          "mode": 4
        }
      ]
    }
  ],
  "nodes": [
    {
      "children": [
        1
      ],
      "matrix": [
        0.003955605439841747,
        0.0,
        0.0,
        0.0,
        0.0,
        8.783208471289655e-19,
        -0.003955605439841747,
        0.0,
        0.0,
        0.003955605439841747,
        8.783208471289655e-19,
        0.0,
        0.0,
        0.0,
        0.0,
        1.0
      ],
      "name": "Sketchfab_model"
    },
    {
      "children": [
        2,
        3,
        4,
        5
      ],
      "name": "tinker.obj.cleaner.materialmerger.gles"
    },
    {
      "mesh": 0,
      "name": "Object_2"
    },
    {
      "mesh": 1,
      "name": "Object_3"
    },
    {
      "mesh": 2,
      "name": "Object_4"
    },
    {
      "mesh": 3,
      "name": "Object_5"
    }
  ],
  "scene": 0,
  "scenes": [
    {
      "name": "Sketchfab_Scene",
      "nodes": [
        0
      ]
    }
  ]
}
